<svg xmlns="http://www.w3.org/2000/svg" width="920" height="380" viewBox="0 0 920 380">
<rect width="100%" height="100%" fill="#ffffff"/>
<style>text{font-family:Arial,Helvetica,sans-serif;fill:#111827}.title{font-size:22px;font-weight:700}.label{font-size:13px}.small{font-size:11px;fill:#4b5563}.value{font-size:12px;font-weight:700}</style>
<text x="30" y="40" class="title">Rating Distribution</text>
<text x="30" y="100" class="label">1.0</text>
<rect x="220" y="82" width="620" height="24" fill="#e5e7eb" rx="3"/>
<rect x="220" y="82" width="96" height="24" fill="#2563eb" rx="3"/>
<text x="856" y="100" class="value">1,334,566</text>
<text x="30" y="154" class="label">2.0</text>
<rect x="220" y="136" width="620" height="24" fill="#e5e7eb" rx="3"/>
<rect x="220" y="136" width="41" height="24" fill="#2563eb" rx="3"/>
<text x="856" y="154" class="value">582,183</text>
<text x="30" y="208" class="label">3.0</text>
<rect x="220" y="190" width="620" height="24" fill="#e5e7eb" rx="3"/>
<rect x="220" y="190" width="56" height="24" fill="#2563eb" rx="3"/>
<text x="856" y="208" class="value">790,645</text>
<text x="30" y="262" class="label">4.0</text>
<rect x="220" y="244" width="620" height="24" fill="#e5e7eb" rx="3"/>
<rect x="220" y="244" width="99" height="24" fill="#2563eb" rx="3"/>
<text x="856" y="262" class="value">1,386,231</text>
<text x="30" y="316" class="label">5.0</text>
<rect x="220" y="298" width="620" height="24" fill="#e5e7eb" rx="3"/>
<rect x="220" y="298" width="620" height="24" fill="#2563eb" rx="3"/>
<text x="856" y="316" class="value">8,608,789</text>
</svg>
